<?xml version="1.0" encoding="utf-8"?>
<!-- Generator: Adobe Illustrator 16.0.0, SVG Export Plug-In . SVG Version: 6.00 Build 0)  -->
<!DOCTYPE svg PUBLIC "-//W3C//DTD SVG 1.1//EN" "http://www.w3.org/Graphics/SVG/1.1/DTD/svg11.dtd">
<svg version="1.1" id="圖層_1" xmlns="http://www.w3.org/2000/svg" xmlns:xlink="http://www.w3.org/1999/xlink" x="0px" y="0px"
	 width="2160px" height="2160px" viewBox="0 0 2160 2160" enable-background="new 0 0 2160 2160" xml:space="preserve">
<g>
	<path fill="#FFD978" d="M1084.938,1085.983c0.337,0.193,0.844,0.552,1.463,1.024c-0.237-0.713-0.405-1.29-0.476-1.658L423.665,0
		H179.55L1084.938,1085.983z"/>
	<path fill="#FFD978" d="M1082.232,1092.201c0.361-0.127,0.885-0.274,1.533-0.433c-0.823-0.308-1.436-0.57-1.723-0.754L0,940.194
		v161.486L1082.232,1092.201z"/>
	<path fill="#FFD978" d="M1083.456,1087.787c0.368,0.086,0.92,0.267,1.599,0.518c-0.474-0.663-0.824-1.196-0.998-1.537L0,118.86
		v256.438L1083.456,1087.787z"/>
	<path fill="#FFD978" d="M1089.217,1084.104c0.174,0.305,0.41,0.912,0.685,1.724c0.183-0.656,0.35-1.182,0.49-1.534L1135.49,0H974.6
		L1089.217,1084.104z"/>
	<path fill="#FFD978" d="M1082.614,1089.939c0.378-0.02,0.923-0.008,1.591,0.027c-0.68-0.521-1.185-0.944-1.438-1.219L0,586.663
		v184.552L1082.614,1089.939z"/>
	<path fill="#FFD978" d="M1086.951,1084.777c0.265,0.27,0.657,0.771,1.135,1.436c-0.016-0.699-0.01-1.266,0.024-1.646L807.849,0
		h-180.23L1086.951,1084.777z"/>
	<path fill="#FFD978" d="M1091.594,1084.147c0.239-0.475,0.343,0.258,0.351,1.649c0.265-0.402,0.495-0.729,0.684-0.968L1473.27,0
		h-174.128L1091.594,1084.147z"/>
	<path fill="#FFD978" d="M2160,519.861l-1062.798,568.454c0.649-0.182,0.128,0.381-1.019,1.312c0.453-0.043,0.833-0.066,1.127-0.071
		L2160,711.587V519.861z"/>
	<path fill="#FFD978" d="M1095.785,1086.377c0.61-0.407,0.28,0.283-0.558,1.526c0.421-0.175,0.779-0.312,1.061-0.403L2160,295.497
		V15.599L1095.785,1086.377z"/>
	<path fill="#FFD978" d="M1093.827,1085.009c0.447-0.538,0.343,0.192-0.075,1.579c0.36-0.299,0.672-0.544,0.92-0.72L1893.194,0
		h-226.451L1093.827,1085.009z"/>
	<path fill="#FFD978" d="M2160,1811.994v-213.673l-1062.679-502.756c-0.303-0.012-0.799-0.093-1.441-0.229
		c0.807,0.823,1.259,1.379,1.129,1.468L2160,1811.994z"/>
	<path fill="#FFD978" d="M1095.422,1092.894c1.588,0.809,2.646,1.438,2.58,1.619L2160,1413.016V1244.13L1095.422,1092.894z"/>
	<path fill="#FFD978" d="M1097.954,1090.6c0.684,0.012,0.067,0.381-1.241,0.914c0.498,0.1,0.912,0.195,1.216,0.284L2160,1046.51
		V884.116L1097.954,1090.6z"/>
	<path fill="#FFD978" d="M1096.001,1097.578c-0.295-0.114-0.736-0.337-1.286-0.645c0.562,1.086,0.821,1.755,0.582,1.69
		L1950.671,2160H2160v-86.23L1096.001,1097.578z"/>
	<path fill="#FFD978" d="M1085.224,1098.227c0.128-0.355,0.336-0.838,0.604-1.414c-0.817,0.488-1.446,0.822-1.769,0.922L0,2108.813
		V2160h241.573L1085.224,1098.227z"/>
	<path fill="#FFD978" d="M1094.067,1098.992c-0.248-0.206-0.586-0.533-0.989-0.954c0.222,1.243,0.263,1.956,0.014,1.723
		L1513.771,2160h199.299L1094.067,1098.992z"/>
	<path fill="#FFD978" d="M1091.829,1099.766c-0.2-0.31-0.462-0.795-0.765-1.407c-0.124,0.906-0.249,1.6-0.367,1.971L1172.359,2160
		h164.512L1091.829,1099.766z"/>
	<path fill="#FFD978" d="M1083.668,1096.528c0.233-0.307,0.577-0.709,1.002-1.179c-0.903,0.219-1.584,0.347-1.911,0.344L0,1623.385
		v217.729L1083.668,1096.528z"/>
	<path fill="#FFD978" d="M672.895,2160l414.365-1060.684c0.015-0.371,0.069-0.889,0.155-1.513c-0.632,0.697-1.134,1.201-1.422,1.405
		L475.537,2160H672.895z"/>
	<path fill="#FFD978" d="M1082.717,1094.445c0.513-0.375,1.418-0.924,2.532-1.553L0,1264.045v171.083L1082.717,1094.445z"/>
	<path fill="#FFD978" d="M1089.491,1100.042c-0.101-0.391-0.208-0.962-0.317-1.663c-0.374,0.791-0.686,1.377-0.892,1.645
		L848.708,2160h163.861L1089.491,1100.042z"/>
</g>
</svg>
